<svg width="800" height="238" viewBox="0 0 800 238" fill="none" xmlns="http://www.w3.org/2000/svg">
<rect x="-1" width="801" height="238" fill="#2D2D2D"/>
<path d="M1105.59 -248.538C1083.89 -258.464 1060.81 -265.055 1037.13 -268.288L758.426 -306.319C756.812 -306.193 755.205 -306.159 753.617 -306.315C695.332 -312.172 637.616 -323.159 579.486 -330.743C501.914 -340.862 436.372 -304.003 408.8 -236.364C380.208 -166.217 402.186 -94.7693 467.072 -47.3639C494.733 -27.1563 522.539 -7.15552 550.276 12.9432C550.334 12.8615 550.396 12.7837 550.455 12.7113C582.675 36.3507 614.971 59.8813 647.095 83.6568C690.189 115.555 689.727 125.881 644.253 157.345C585.628 197.909 560.39 265.854 579.945 330.465C597.987 390.068 660.182 436.252 721.746 435.755C787.952 435.226 848.315 390.945 868.338 328.224C889.089 263.205 864.946 195.76 806.724 155.105C762.272 124.066 717.001 94.0344 674.375 60.6466C672.793 59.4071 671.313 58.0446 669.913 56.5679C650.354 35.9536 664.287 0.0040539 692.783 -0.000309805C694.18 -0.00245543 695.574 0.0819734 696.951 0.260042C804.719 14.1323 911.957 31.9103 1019.65 46.3488C1100.44 57.1818 1170.46 10.8412 1192.17 -64.4333C1214.4 -141.503 1180.57 -214.223 1105.92 -248.381C1105.81 -248.433 1105.7 -248.48 1105.59 -248.532L1105.59 -248.538Z" fill="#CFFA78"/>
<path d="M673.394 205.73C671.976 203.239 670.491 200.784 669.037 198.312C666.236 193.553 663.447 188.786 660.628 184.037C659.56 182.238 657.712 181.581 655.883 182.265C653.952 182.986 653.006 184.823 653.561 186.902C653.569 186.933 653.578 186.964 653.585 186.995L662.748 202.721C663.993 204.834 665.241 206.945 666.502 209.05C666.906 209.723 667.483 210.382 668.137 210.805C669.555 211.72 671.537 211.397 672.767 210.212C673.984 209.04 674.275 207.28 673.393 205.73H673.394Z" fill="#2D2D2D"/>
<path d="M662.919 206.434C662.765 205.863 662.524 205.319 662.211 204.818L658.521 198.909C658.493 198.881 658.467 198.85 658.445 198.818C657.634 197.615 656.929 196.343 656.153 195.115C655.117 193.478 653.377 192.814 651.653 193.36C649.865 193.927 648.853 195.476 648.978 197.462C649.03 198.308 649.091 199.156 649.147 200.002C649.15 200.002 649.153 200.002 649.155 200.002C649.216 200.989 649.278 201.976 649.335 202.965C649.41 204.29 649.207 204.445 647.887 204.078C646.187 203.605 644.493 204.2 643.573 205.595C642.724 206.882 642.83 208.798 643.813 209.963C644.871 211.215 646.671 211.662 648.182 211.05C649.748 210.415 650.65 208.888 650.502 207.136C650.389 205.797 650.244 204.46 650.205 203.121C650.204 203.07 650.205 203.022 650.212 202.971C650.294 202.272 651.199 201.969 651.651 202.511C651.672 202.538 651.693 202.565 651.711 202.595C653.153 204.866 654.514 207.19 655.943 209.469C657.017 211.179 659.007 211.778 660.785 210.999C662.604 210.202 663.453 208.406 662.922 206.444C662.922 206.441 662.92 206.437 662.919 206.435V206.434Z" fill="#2D2D2D"/>
<path d="M741.166 198.534C741.218 198.022 741.524 197.69 742.061 197.537C744.234 196.975 745.92 196.694 747.173 196.694C751.262 196.694 753.052 198.892 752.514 203.314C752.284 205.282 751.697 206.866 750.649 208.221C749.601 209.576 747.812 210.368 745.537 210.368C745.001 210.368 744.208 210.265 743.212 210.086L742.65 214.712C742.573 215.224 742.292 215.478 741.806 215.478H739.838C739.326 215.478 739.096 215.222 739.173 214.712L741.167 198.534H741.166ZM743.569 207.223C744.157 207.402 744.72 207.505 745.307 207.505C747.428 207.505 748.681 205.945 748.988 203.288C749.32 200.758 748.476 199.48 746.509 199.48C745.819 199.48 745.128 199.557 744.49 199.736L743.569 207.224V207.223Z" fill="#2D2D2D"/>
<path d="M761.793 209.013C760.847 209.882 759.723 210.316 758.445 210.316C754.484 210.316 753.716 207.147 754.125 203.671C754.586 200.143 756.58 196.668 761.743 196.668C763.072 196.668 764.401 196.924 765.704 197.408C766.138 197.613 766.343 197.97 766.266 198.456L765.192 207.223C765.115 208.066 765.115 208.808 765.192 209.396C765.243 209.907 765.013 210.162 764.527 210.162H762.789C762.303 210.162 761.997 209.932 761.894 209.472L761.793 209.011V209.013ZM762.636 199.708C762.253 199.478 761.767 199.377 761.205 199.377C759.237 199.377 758.036 200.885 757.653 203.901C757.423 206.022 758.088 207.633 759.826 207.633C760.516 207.633 761.155 207.454 761.743 207.071L762.637 199.71L762.636 199.708Z" fill="#2D2D2D"/>
<path d="M769.333 208.834C769.001 208.425 768.797 207.888 768.668 207.223C768.438 205.868 768.49 204.82 768.694 203.108C768.924 201.139 769.359 199.325 769.972 197.663C770.176 197.177 770.508 196.921 770.968 196.921H772.808C773.294 196.921 773.447 197.177 773.294 197.687C772.604 199.834 772.195 201.598 772.016 202.952C771.709 205.84 771.889 207.629 774.189 207.629C774.853 207.629 775.518 207.502 776.157 207.246L777.333 197.687C777.385 197.176 777.665 196.921 778.151 196.921H780.171C780.657 196.921 780.887 197.177 780.835 197.687L779.302 210.058C778.74 214.812 775.57 216.191 772.426 216.191C770.995 216.191 769.563 215.936 768.158 215.451C767.698 215.298 767.545 214.965 767.698 214.429L768.055 213.228C768.234 212.742 768.541 212.563 769.026 212.692C770.252 213.075 771.556 213.254 772.911 213.254C774.572 213.254 775.57 212.563 775.901 209.982L775.953 209.47C775.237 210.006 774.292 210.262 773.141 210.262C771.276 210.262 769.972 209.649 769.333 208.831V208.834Z" fill="#2D2D2D"/>
<path d="M698.508 192.961H695.875C695.389 192.961 695.006 193.192 694.776 193.678L689.894 203.825L687.465 193.678C687.338 193.192 687.031 192.961 686.545 192.961H678.628V194.107C678.628 194.98 679.335 195.687 680.208 195.687H682.659L680.157 209.268C680.08 209.804 680.234 210.035 680.77 210.035H682.635C683.147 210.035 683.427 209.779 683.504 209.268L685.421 197.793L687.646 207.147C687.773 207.633 688.08 207.863 688.566 207.863H690.151C690.637 207.863 690.995 207.633 691.225 207.147L695.749 197.819L694.854 209.27C694.828 209.806 695.007 210.036 695.544 210.036H697.461C697.973 210.036 698.227 209.78 698.253 209.27L699.199 193.729C699.225 193.217 698.995 192.963 698.509 192.963L698.508 192.961Z" fill="#2D2D2D"/>
<path d="M734.802 196.744C730.7 196.744 728.437 199.148 727.527 202.06C726.543 201.672 725.71 201.168 725.681 200.563C725.681 200.563 725.681 200.572 725.681 200.585C725.669 199.663 725.593 198.698 725.448 197.69C725.345 197.178 725.039 196.924 724.553 196.924H722.585C722.099 196.924 721.895 197.18 721.972 197.666C722.253 199.455 722.303 201.346 722.075 203.34C721.743 206.178 720.745 207.609 719.084 207.609C717.628 207.609 717.167 206.817 717.372 205.257L718.318 197.691C718.358 197.297 718.228 197.056 717.944 196.966V196.925L708.082 196.705C707.92 196.7 707.755 196.695 707.584 196.695C703.623 196.695 701.399 198.663 700.812 203.545C700.198 208.426 701.859 210.369 705.745 210.369C709.63 210.369 712.033 208.401 712.646 203.519C712.84 201.956 712.805 200.7 712.54 199.711H714.569L713.82 205.82C713.436 208.888 714.867 210.344 718.318 210.344C720.542 210.344 722.255 209.68 723.404 208.325C724.434 207.112 725.114 205.57 725.447 203.702C725.434 203.786 725.42 203.861 725.407 203.923C725.407 203.923 726.099 204.15 727.09 204.391C726.977 206.026 727.321 207.389 728.109 208.478C729.004 209.678 730.486 210.267 732.556 210.267C733.886 210.267 735.291 210.089 736.773 209.731C737.259 209.604 737.489 209.271 737.489 208.735L737.464 207.687C737.438 207.201 737.182 207.022 736.697 207.151C735.854 207.381 735.036 207.483 734.243 207.483C732.096 207.483 730.588 206.716 730.767 204.953C731.278 205.106 731.866 205.183 732.505 205.183C734.37 205.183 736.134 204.722 737.565 203.291C738.307 202.551 738.741 201.656 738.869 200.557C739.176 198.077 737.539 196.749 734.805 196.749L734.802 196.744ZM709.191 203.542C708.808 206.61 707.81 207.632 706.201 207.632C704.591 207.632 703.85 206.584 704.233 203.542C704.411 201.933 704.744 200.858 705.229 200.296C705.715 199.734 706.38 199.453 707.223 199.453C708.731 199.453 709.6 200.092 709.191 203.542ZM735.416 200.603C735.314 201.395 734.904 202.008 734.215 202.469C733.524 202.903 732.732 203.133 731.889 203.133C731.506 203.133 731.123 203.082 730.79 202.955C731.173 200.705 732.349 199.351 734.266 199.351C735.008 199.351 735.493 199.964 735.417 200.603H735.416Z" fill="#2D2D2D"/>
</svg>
