<svg width="428" height="225" viewBox="0 0 428 225" fill="none" xmlns="http://www.w3.org/2000/svg">
<rect width="428" height="225" fill="#2D2D2D"/>
<path d="M717.594 -619.538C695.891 -629.464 672.807 -636.055 649.129 -639.288L370.426 -677.319C368.812 -677.193 367.205 -677.159 365.617 -677.315C307.332 -683.172 249.616 -694.159 191.486 -701.743C113.914 -711.862 48.3725 -675.003 20.8 -607.364C-7.79214 -537.217 14.1862 -465.769 79.0722 -418.364C106.733 -398.156 134.539 -378.156 162.276 -358.057C162.334 -358.138 162.396 -358.216 162.455 -358.289C194.675 -334.649 226.971 -311.119 259.095 -287.343C302.189 -255.445 301.727 -245.119 256.253 -213.655C197.628 -173.091 172.39 -105.146 191.945 -40.5355C209.987 19.068 272.182 65.2523 333.746 64.7555C399.952 64.2259 460.315 19.9445 480.338 -42.7756C501.089 -107.795 476.946 -175.24 418.724 -215.895C374.272 -246.934 329.001 -276.966 286.375 -310.353C284.793 -311.593 283.313 -312.955 281.913 -314.432C262.354 -335.046 276.287 -370.996 304.783 -371C306.18 -371.002 307.574 -370.918 308.951 -370.74C416.719 -356.868 523.957 -339.09 631.653 -324.651C712.442 -313.818 782.464 -360.159 804.172 -435.433C826.399 -512.503 792.569 -585.223 717.923 -619.381C717.813 -619.433 717.7 -619.48 717.591 -619.532L717.594 -619.538Z" fill="#CFFA78"/>
<path d="M294.255 32.9371C293.123 30.9488 291.938 28.9902 290.778 27.0174C288.543 23.2193 286.317 19.4151 284.067 15.6252C283.215 14.1899 281.741 13.6657 280.281 14.2115C278.74 14.7871 277.985 16.2531 278.428 17.9121C278.434 17.9367 278.441 17.9613 278.447 17.986L285.759 30.5353C286.752 32.222 287.748 33.9066 288.755 35.5861C289.077 36.1237 289.538 36.649 290.06 36.9865C291.192 37.717 292.773 37.4594 293.754 36.5135C294.726 35.5779 294.958 34.1733 294.254 32.9371H294.255Z" fill="#2D2D2D"/>
<path d="M285.896 33.4983C285.773 33.0428 285.581 32.6088 285.33 32.2087L282.386 27.4934C282.363 27.4709 282.343 27.4462 282.325 27.4206C281.678 26.4613 281.116 25.4456 280.496 24.4659C279.669 23.1598 278.281 22.6294 276.905 23.0654C275.478 23.5179 274.671 24.7541 274.77 26.3392C274.812 27.0143 274.861 27.6904 274.906 28.3655C274.908 28.3655 274.91 28.3655 274.912 28.3655C274.96 29.1534 275.01 29.9413 275.055 30.7303C275.115 31.788 274.953 31.9111 273.9 31.6187C272.543 31.2412 271.192 31.7162 270.457 32.8294C269.78 33.8563 269.864 35.385 270.649 36.3145C271.493 37.3138 272.93 37.6708 274.135 37.1825C275.385 36.6756 276.105 35.4568 275.987 34.0585C275.897 32.9904 275.781 31.9235 275.75 30.8544C275.749 30.8144 275.75 30.7754 275.755 30.7354C275.821 30.1773 276.543 29.9352 276.903 30.3681C276.921 30.3897 276.937 30.4112 276.951 30.4348C278.103 32.2476 279.188 34.1015 280.329 35.9205C281.185 37.285 282.774 37.7631 284.193 37.1414C285.644 36.5053 286.321 35.0721 285.898 33.5065C285.898 33.5044 285.897 33.5014 285.896 33.4993V33.4983Z" fill="#2D2D2D"/>
<path d="M348.338 27.1941C348.379 26.7858 348.623 26.5211 349.052 26.399C350.786 25.9507 352.132 25.726 353.131 25.726C356.395 25.726 357.823 27.4804 357.394 31.0086C357.21 32.5794 356.741 33.8433 355.905 34.9247C355.069 36.006 353.641 36.638 351.826 36.638C351.398 36.638 350.765 36.5559 349.97 36.4133L349.522 40.1047C349.46 40.513 349.237 40.7161 348.849 40.7161H347.278C346.87 40.7161 346.686 40.512 346.748 40.1047L348.339 27.1941H348.338ZM350.255 34.1285C350.724 34.2711 351.174 34.3532 351.642 34.3532C353.335 34.3532 354.334 33.1087 354.58 30.9881C354.844 28.9691 354.171 27.9493 352.602 27.9493C352.051 27.9493 351.5 28.0108 350.99 28.1534L350.255 34.1296V34.1285Z" fill="#2D2D2D"/>
<path d="M364.798 35.5563C364.043 36.2499 363.146 36.5967 362.127 36.5967C358.966 36.5967 358.353 34.0677 358.679 31.2935C359.047 28.4783 360.638 25.7052 364.758 25.7052C365.819 25.7052 366.88 25.9094 367.919 26.2961C368.266 26.4593 368.429 26.7445 368.367 27.1323L367.511 34.1282C367.449 34.8012 367.449 35.3932 367.511 35.8621C367.552 36.2704 367.368 36.4735 366.98 36.4735H365.593C365.205 36.4735 364.961 36.2899 364.879 35.9226L364.798 35.5553V35.5563ZM365.471 28.1316C365.165 27.9479 364.778 27.8669 364.329 27.8669C362.759 27.8669 361.8 29.0703 361.495 31.4772C361.311 33.17 361.841 34.4555 363.228 34.4555C363.779 34.4555 364.289 34.3129 364.758 34.0072L365.472 28.1326L365.471 28.1316Z" fill="#2D2D2D"/>
<path d="M370.815 35.4137C370.551 35.0875 370.387 34.6586 370.285 34.1282C370.101 33.0469 370.142 32.2107 370.305 30.8442C370.489 29.2734 370.836 27.8258 371.325 26.4993C371.488 26.1115 371.753 25.9073 372.12 25.9073H373.588C373.976 25.9073 374.098 26.1115 373.976 26.5188C373.425 28.2321 373.099 29.6397 372.956 30.72C372.711 33.0243 372.855 34.4524 374.69 34.4524C375.221 34.4524 375.751 34.3508 376.261 34.1467L377.2 26.5188C377.241 26.1105 377.464 25.9073 377.852 25.9073H379.464C379.852 25.9073 380.035 26.1115 379.994 26.5188L378.77 36.3904C378.322 40.1844 375.792 41.2852 373.284 41.2852C372.142 41.2852 370.999 41.0811 369.878 40.6943C369.51 40.5722 369.388 40.3065 369.51 39.8787L369.795 38.9204C369.938 38.5326 370.183 38.39 370.57 38.4926C371.549 38.7983 372.589 38.9409 373.67 38.9409C374.996 38.9409 375.792 38.39 376.057 36.3299L376.098 35.9216C375.526 36.3494 374.772 36.5536 373.854 36.5536C372.365 36.5536 371.325 36.0642 370.815 35.4117V35.4137Z" fill="#2D2D2D"/>
<path d="M314.296 22.7474H312.195C311.807 22.7474 311.501 22.931 311.318 23.3189L307.422 31.4166L305.484 23.3189C305.382 22.931 305.137 22.7474 304.749 22.7474H298.432V23.6615C298.432 24.3581 298.996 24.9224 299.693 24.9224H301.648L299.652 35.7605C299.59 36.1883 299.713 36.372 300.141 36.372H301.63C302.038 36.372 302.261 36.1678 302.323 35.7605L303.853 26.6029L305.628 34.0677C305.729 34.4555 305.974 34.6391 306.362 34.6391H307.627C308.015 34.6391 308.3 34.4555 308.484 34.0677L312.094 26.6234L311.38 35.7615C311.36 36.1893 311.502 36.373 311.931 36.373H313.461C313.869 36.373 314.072 36.1688 314.093 35.7615L314.848 23.3599C314.868 22.9516 314.685 22.7484 314.297 22.7484L314.296 22.7474Z" fill="#2D2D2D"/>
<path d="M343.259 25.7657C339.986 25.7657 338.18 27.6843 337.454 30.008C336.669 29.6982 336.004 29.296 335.98 28.8138C335.98 28.8138 335.98 28.821 335.98 28.8313C335.971 28.0957 335.91 27.3252 335.795 26.5208C335.712 26.1125 335.468 25.9094 335.08 25.9094H333.51C333.122 25.9094 332.959 26.1135 333.02 26.5013C333.245 27.9294 333.285 29.4386 333.102 31.0299C332.838 33.2941 332.042 34.436 330.716 34.436C329.554 34.436 329.186 33.804 329.35 32.5595L330.105 26.5219C330.136 26.2069 330.033 26.015 329.806 25.9432V25.9104L321.936 25.735C321.807 25.7308 321.675 25.7268 321.539 25.7268C318.378 25.7268 316.603 27.2975 316.134 31.193C315.645 35.0885 316.971 36.6387 320.071 36.6387C323.171 36.6387 325.089 35.068 325.578 31.1725C325.733 29.9249 325.705 28.9226 325.494 28.1336H327.113L326.515 33.0089C326.209 35.4568 327.351 36.6192 330.105 36.6192C331.88 36.6192 333.246 36.0888 334.163 35.0075C334.985 34.04 335.528 32.8089 335.794 31.3182C335.783 31.3859 335.772 31.4454 335.762 31.4946C335.762 31.4946 336.314 31.6762 337.105 31.8681C337.014 33.1731 337.289 34.2606 337.918 35.1295C338.632 36.0878 339.815 36.5577 341.467 36.5577C342.528 36.5577 343.649 36.4151 344.832 36.1298C345.22 36.0283 345.404 35.7626 345.404 35.3347L345.383 34.4986C345.363 34.1108 345.158 33.9682 344.772 34.0708C344.099 34.2544 343.446 34.3355 342.813 34.3355C341.1 34.3355 339.896 33.724 340.039 32.3164C340.447 32.4385 340.916 32.5001 341.426 32.5001C342.915 32.5001 344.322 32.1327 345.464 30.9909C346.056 30.3999 346.403 29.6859 346.504 28.8087C346.75 26.8296 345.444 25.7698 343.261 25.7698L343.259 25.7657ZM322.821 31.191C322.516 33.6389 321.72 34.4545 320.435 34.4545C319.151 34.4545 318.559 33.6183 318.864 31.191C319.007 29.9065 319.273 29.0488 319.66 28.6004C320.047 28.1521 320.578 27.9274 321.251 27.9274C322.454 27.9274 323.148 28.4373 322.821 31.191ZM343.749 28.8456C343.668 29.4776 343.34 29.967 342.791 30.3343C342.24 30.681 341.608 30.8647 340.935 30.8647C340.629 30.8647 340.323 30.8237 340.057 30.7221C340.363 28.9267 341.302 27.8464 342.832 27.8464C343.424 27.8464 343.81 28.3357 343.75 28.8456H343.749Z" fill="#2D2D2D"/>
</svg>
