<svg width="18" height="18" viewBox="0 0 18 18" fill="none" xmlns="http://www.w3.org/2000/svg">
<g clip-path="url(#clip0_0_74)">
<path d="M9 0C13.9627 0 18 4.03725 18 9C18 13.9628 13.9627 18 9 18C4.03725 18 0 13.9628 0 9C0 4.03725 4.03725 0 9 0ZM11.3325 14.25C11.952 14.25 12.573 14.0265 13.0448 13.554L14.25 12.3488L11.877 9.97575L10.3238 11.529C8.55075 10.8525 7.24275 9.59775 6.471 7.67625L8.02425 6.123L5.65125 3.75L4.446 4.95525C3.9735 5.42625 3.75 6.048 3.75 6.6675C3.75 10.092 8.1525 14.25 11.3325 14.25Z" fill="#CFFA78"/>
</g>
<defs>
<clipPath id="clip0_0_74">
<rect width="18" height="18" fill="white" transform="matrix(-1 0 0 1 18 0)"/>
</clipPath>
</defs>
</svg>
