<svg width="116" height="116" viewBox="0 0 116 116" fill="none" xmlns="http://www.w3.org/2000/svg">
<g filter="url(#filter0_b_0_7)">
<circle cx="58" cy="58" r="58" fill="#B0ABAB" fill-opacity="0.6"/>
</g>
<circle cx="58.2566" cy="58.2566" r="40.1637" stroke="white" stroke-opacity="0.7" stroke-width="0.256637"/>
<path d="M12.5889 72.0743L12.011 72.2478L11.5707 70.7814C11.4688 70.4421 11.3227 70.1851 11.1323 70.0103C10.9362 69.8373 10.7162 69.7309 10.4723 69.6913C10.2227 69.6534 9.96568 69.6742 9.70117 69.7536C9.4309 69.8347 9.20492 69.959 9.02323 70.1264C8.83579 70.2955 8.71076 70.5054 8.64813 70.7562C8.5855 71.0069 8.60512 71.3019 8.70699 71.6412L9.14725 73.1076L8.56933 73.2811L8.16274 71.9269C8.0108 71.4208 7.96901 70.9789 8.03736 70.6011C8.10399 70.2175 8.25976 69.9011 8.50469 69.6521C8.74789 69.3973 9.05926 69.2129 9.43878 69.0989L9.55954 69.0627C9.93332 68.9504 10.2948 68.9328 10.6438 69.0098C10.9855 69.0828 11.2897 69.261 11.5566 69.5444C11.8218 69.8221 12.0303 70.214 12.1823 70.72L12.5889 72.0743ZM15.0369 71.8658L8.71436 73.7641L8.51754 73.1086L14.8401 71.2103L15.0369 71.8658Z" fill="white"/>
<path d="M13.2586 64.7656L8.54522 65.4595L8.46651 64.9249L10.4356 64.635L10.4435 64.6885C9.75445 64.7899 9.22428 64.7132 8.85298 64.4584C8.47575 64.2044 8.23947 63.7537 8.14414 63.1062L8.12184 62.9548L8.72772 62.8656L8.76839 63.1418C8.84359 63.6526 9.03452 64.022 9.34118 64.25C9.64189 64.4788 10.0477 64.5556 10.5585 64.4804L13.1602 64.0973L13.2586 64.7656Z" fill="white"/>
<path d="M12.6659 58.8384L7.90381 58.9802L7.88397 58.3141L12.646 58.1723L12.6659 58.8384ZM8.46671 59.7293L7.92659 59.7454L7.88397 58.3141L8.42409 58.298L8.46671 59.7293ZM7.01732 58.8625C7.02215 59.0245 6.9838 59.1488 6.90228 59.2353C6.81459 59.316 6.70472 59.3583 6.57269 59.3622C6.44066 59.3662 6.33148 59.3304 6.24514 59.2549C6.15261 59.1735 6.10394 59.0518 6.09911 58.8898C6.09429 58.7278 6.13573 58.6064 6.22342 58.5257C6.30512 58.4452 6.41198 58.403 6.54401 58.399C6.67604 58.3951 6.78823 58.4308 6.88057 58.5061C6.96691 58.5817 7.0125 58.7004 7.01732 58.8625Z" fill="white"/>
<path d="M12.6301 54.373L7.89741 53.7529L7.96762 53.2171L9.95894 53.478L9.94489 53.5852C9.51032 53.5282 9.14307 53.4196 8.84316 53.2592C8.54402 53.0928 8.32412 52.8763 8.18347 52.6096C8.03685 52.3421 7.98812 52.0208 8.03726 51.6458L8.04077 51.619C8.08991 51.244 8.2168 50.9457 8.42142 50.7242C8.62604 50.5028 8.89391 50.3532 9.22502 50.2755C9.55614 50.1978 9.94196 50.1878 10.3825 50.2455L10.3544 50.4598C9.91984 50.4028 9.55259 50.2942 9.25267 50.1338C8.95354 49.9674 8.73364 49.7509 8.59298 49.4842C8.44715 49.2108 8.39881 48.8865 8.44795 48.5115L8.45146 48.4847C8.5006 48.1096 8.62748 47.8114 8.83211 47.5899C9.03751 47.3625 9.30577 47.21 9.63688 47.1322C9.96878 47.0486 10.355 47.0356 10.7955 47.0933L13.5369 47.4525L13.4492 48.1222L10.556 47.7431C10.1392 47.6885 9.79559 47.7464 9.52499 47.9169C9.25439 48.0873 9.09413 48.363 9.04421 48.744C8.99272 49.1369 9.07976 49.4662 9.30533 49.7319C9.52572 49.9909 9.85022 50.1485 10.2788 50.2046L13.1274 50.5779L13.0397 51.2476L10.1464 50.8685C9.72973 50.8139 9.38607 50.8718 9.11547 51.0423C8.84487 51.2127 8.68461 51.4884 8.63469 51.8694C8.58321 52.2623 8.67025 52.5916 8.89581 52.8573C9.1162 53.1163 9.44071 53.2739 9.86933 53.33L12.7179 53.7033L12.6301 54.373Z" fill="white"/>
<path d="M15.1073 43.0041C14.981 43.3923 14.8057 43.7078 14.5815 43.9505C14.3516 44.1914 14.0956 44.367 13.8135 44.4772C13.5256 44.5856 13.227 44.64 12.9175 44.6403C12.6099 44.6349 12.3076 44.5839 12.0107 44.4873L11.8908 44.4483C11.5997 44.3535 11.3281 44.2178 11.0762 44.0411C10.8262 43.8587 10.6196 43.64 10.4564 43.3848C10.2932 43.1297 10.1905 42.8437 10.1483 42.5269C10.1023 42.2026 10.1397 41.8549 10.2605 41.4837C10.4147 41.0099 10.6485 40.6503 10.9619 40.405C11.2772 40.154 11.6264 40.0025 12.0096 39.9504C12.387 39.8964 12.7642 39.9307 13.141 40.0534L13.475 40.162L12.1569 44.2128L11.6602 44.0512L12.8334 40.4457L13.0288 40.6893C12.6919 40.5797 12.3784 40.5439 12.0882 40.5821C11.7941 40.6127 11.5385 40.7189 11.3215 40.9009C11.1006 41.0752 10.9353 41.3308 10.8257 41.6677C10.7105 42.0216 10.6976 42.3426 10.787 42.6306C10.8764 42.9185 11.0387 43.1671 11.2737 43.3761C11.5106 43.5795 11.8032 43.7378 12.1514 43.8512C12.494 43.9626 12.8266 44.0077 13.1492 43.9864C13.468 43.9576 13.7492 43.8502 13.9928 43.6643C14.2382 43.4726 14.4213 43.1913 14.5421 42.8202C14.6703 42.4262 14.6858 42.0777 14.5887 41.7746C14.4859 41.4696 14.321 41.2487 14.0941 41.1117L14.2892 40.5122C14.5732 40.6678 14.7968 40.8731 14.96 41.1283C15.1175 41.3816 15.2107 41.6676 15.2396 41.9864C15.2684 42.3052 15.2244 42.6444 15.1073 43.0041Z" fill="white"/>
<path d="M16.9377 38.0294L12.6386 35.9763L12.9259 35.3749L17.2249 37.428L16.9377 38.0294ZM12.7964 36.8999L12.3087 36.667L12.9259 35.3749L13.4135 35.6078L12.7964 36.8999ZM11.9043 35.4659C11.8345 35.6122 11.7435 35.7051 11.6314 35.7447C11.5165 35.7764 11.3995 35.7637 11.2803 35.7068C11.1611 35.6499 11.0804 35.5681 11.0382 35.4614C10.9931 35.3468 11.0055 35.2163 11.0754 35.07C11.1453 34.9237 11.2376 34.8348 11.3525 34.8031C11.462 34.7689 11.5764 34.7803 11.6956 34.8372C11.8148 34.8941 11.8982 34.9772 11.9458 35.0865C11.988 35.1931 11.9742 35.3196 11.9043 35.4659Z" fill="white"/>
<path d="M19.0687 34.0189L15.0371 31.4804L15.3251 31.0231L17.0093 32.0836L16.9805 32.1294C16.3912 31.7583 16.0383 31.3552 15.9221 30.9201C15.8007 30.4818 15.9144 29.9858 16.2631 29.432L16.3447 29.3025L16.8629 29.6288L16.7141 29.865C16.439 30.302 16.3438 30.7067 16.4284 31.0793C16.508 31.4487 16.7663 31.771 17.2032 32.0461L19.4286 33.4474L19.0687 34.0189Z" fill="white"/>
<path d="M23.7559 27.8269C23.4906 28.1372 23.204 28.3661 22.8961 28.5137C22.5876 28.6527 22.2741 28.7283 21.9557 28.7404C21.6366 28.744 21.3282 28.6936 21.0304 28.5891C20.7366 28.48 20.4733 28.326 20.2406 28.127L20.1448 28.045C19.9121 27.846 19.721 27.6076 19.5715 27.3297C19.4175 27.0479 19.3217 26.7488 19.2843 26.4323C19.2468 26.1159 19.275 25.7964 19.3691 25.4739C19.4625 25.143 19.638 24.827 19.8955 24.5258C20.1569 24.2201 20.4419 23.9977 20.7504 23.8586C21.0583 23.7111 21.3714 23.6312 21.6899 23.6191C22.0083 23.607 22.3167 23.6575 22.6151 23.7705C22.9128 23.875 23.1781 24.0267 23.4108 24.2257L23.5066 24.3077C23.7393 24.5067 23.9324 24.7428 24.0857 25.0162C24.2391 25.2895 24.3368 25.5863 24.3788 25.9067C24.4202 26.2186 24.3942 26.54 24.3008 26.8709C24.2029 27.198 24.0212 27.5166 23.7559 27.8269ZM23.2973 27.4348C23.5548 27.1336 23.7052 26.8238 23.7485 26.5053C23.7911 26.1783 23.7497 25.8664 23.6243 25.5696C23.4944 25.2689 23.2948 25.0034 23.0256 24.7732C22.7518 24.5391 22.4566 24.3854 22.14 24.3122C21.8228 24.2305 21.5105 24.24 21.2033 24.3406C20.8914 24.4374 20.6107 24.6318 20.3609 24.9238C20.1151 25.2113 19.9686 25.5165 19.9214 25.8396C19.8697 26.1588 19.9069 26.471 20.0329 26.7763C20.1583 27.0731 20.3579 27.3385 20.6317 27.5727C20.9009 27.8029 21.1941 27.9588 21.5114 28.0405C21.824 28.1183 22.1366 28.1131 22.4491 28.0248C22.7609 27.928 23.0437 27.7314 23.2973 27.4348Z" fill="white"/>
<path d="M32.8014 19.8441C32.4548 20.0819 32.0977 20.2141 31.7301 20.2407C31.3673 20.2639 31.0166 20.1878 30.6778 20.0125C30.344 19.8338 30.0482 19.5671 29.7903 19.2125L29.9611 19.0953L31.1331 20.8033L30.6875 21.109L26.9676 15.6882L27.5246 15.306L29.3845 18.0164L29.5106 18.6617C29.2487 18.2589 29.0986 17.8704 29.0603 17.4962C29.0235 17.1137 29.0821 16.764 29.236 16.4472C29.395 16.1269 29.6378 15.8547 29.9645 15.6305C30.2516 15.4335 30.5489 15.3096 30.8563 15.2588C31.1637 15.2081 31.4637 15.2207 31.7561 15.2967C32.0535 15.3693 32.3292 15.5005 32.5833 15.6903C32.8388 15.8717 33.06 16.0986 33.2469 16.3708L33.3182 16.4748C33.5017 16.7421 33.6338 17.0301 33.7145 17.3388C33.7919 17.6425 33.8126 17.9487 33.7768 18.2572C33.7459 18.5624 33.6507 18.8535 33.4913 19.1304C33.3284 19.4024 33.0984 19.6403 32.8014 19.8441ZM32.4057 19.3948C32.7027 19.1909 32.9084 18.9442 33.0227 18.6546C33.1371 18.3649 33.168 18.0597 33.1154 17.739C33.0628 17.4183 32.9328 17.107 32.7256 16.805C32.515 16.4981 32.2687 16.2666 31.9869 16.1105C31.7065 15.946 31.4099 15.8692 31.097 15.8801C30.789 15.8876 30.4914 15.9898 30.2043 16.1869C29.937 16.3703 29.7352 16.5962 29.5989 16.8645C29.4626 17.1327 29.4048 17.42 29.4256 17.7261C29.4479 18.0239 29.5593 18.3188 29.7597 18.6109L30.0094 18.9748C30.1996 19.252 30.4297 19.4546 30.6995 19.5825C30.9709 19.7021 31.2563 19.7466 31.5556 19.7159C31.855 19.6853 32.1383 19.5782 32.4057 19.3948Z" fill="white"/>
<path d="M39.6279 15.9109L39.01 14.6191L38.9125 14.6658L38.1818 13.1384C38.0289 12.8189 37.8284 12.6153 37.5801 12.5277C37.3293 12.4348 37.0279 12.4725 36.6758 12.6409C36.5134 12.7186 36.3495 12.8004 36.1842 12.8861C36.0243 12.9692 35.8711 13.0525 35.7246 13.1359C35.581 13.2113 35.4549 13.2816 35.3463 13.3468L35.0898 12.8106C35.2038 12.7428 35.3204 12.6737 35.4398 12.6032C35.5592 12.5328 35.6839 12.4665 35.8139 12.4043C35.9467 12.3341 36.0754 12.2692 36.2 12.2096C36.6387 11.9998 37.0166 11.8855 37.3339 11.8669C37.6565 11.8456 37.9358 11.9217 38.1718 12.095C38.4052 12.2628 38.6126 12.5363 38.7939 12.9155L40.1154 15.6777L39.6279 15.9109ZM38.2281 16.7203C37.9248 16.8654 37.6308 16.9395 37.3461 16.9426C37.0614 16.9457 36.8048 16.8755 36.5763 16.7318C36.3533 16.5856 36.1718 16.3663 36.0319 16.0738C35.8946 15.7867 35.843 15.5119 35.8771 15.2493C35.9166 14.9842 36.0364 14.7405 36.2363 14.5184C36.439 14.2883 36.7191 14.0878 37.0766 13.9168L38.3358 13.3143L38.5574 13.7774L37.2575 14.3993C36.9163 14.5625 36.6937 14.7721 36.5899 15.0281C36.4889 15.2761 36.5019 15.5328 36.6289 15.7982C36.7584 16.069 36.9568 16.2403 37.2241 16.3121C37.4888 16.3785 37.7837 16.3339 38.1086 16.1785C38.309 16.0826 38.4845 15.9554 38.6349 15.7969C38.7828 15.633 38.8776 15.4346 38.9192 15.2017C38.9583 14.9633 38.9094 14.6872 38.7725 14.3733L39.0718 14.5397C39.203 14.8696 39.2554 15.174 39.2291 15.4528C39.2001 15.7262 39.1005 15.9702 38.9303 16.1847C38.7601 16.3993 38.526 16.5778 38.2281 16.7203Z" fill="white"/>
<path d="M43.0208 14.569L41.6539 10.0052L42.1715 9.85012L42.7452 11.7654L42.6417 11.7964C42.5142 11.3708 42.468 10.9866 42.5033 10.6439C42.5385 10.3011 42.6577 10.0085 42.8608 9.76589C43.0639 9.52329 43.3581 9.34429 43.7435 9.22887L43.7694 9.22112C44.3445 9.04885 44.8273 9.10168 45.2176 9.37962C45.6063 9.65181 45.8979 10.1129 46.0926 10.7628L46.8859 13.4114L46.2475 13.6026L45.4128 10.816C45.294 10.4191 45.0891 10.1326 44.7982 9.95653C44.5072 9.78042 44.1662 9.75094 43.7751 9.86808C43.3725 9.98867 43.0855 10.2125 42.9139 10.5397C42.7464 10.8594 42.7239 11.2234 42.8462 11.6317L43.6679 14.3752L43.0208 14.569Z" fill="white"/>
<path d="M52.2492 12.6262C51.8503 12.6788 51.4931 12.6562 51.1774 12.5585C50.8669 12.454 50.5978 12.2957 50.37 12.0834C50.1414 11.8653 49.9573 11.617 49.8177 11.3386C49.684 11.0595 49.5976 10.7711 49.5584 10.4735L49.542 10.3485C49.502 10.0449 49.5108 9.74399 49.5684 9.44572C49.6312 9.14071 49.7455 8.8592 49.9113 8.60118C50.0764 8.3372 50.2958 8.11755 50.5694 7.94222C50.8482 7.76016 51.1811 7.64365 51.568 7.59269C51.9609 7.54094 52.3185 7.56651 52.6409 7.66939C52.9693 7.77148 53.2459 7.94094 53.4709 8.17777C53.6959 8.41459 53.8498 8.70923 53.9325 9.06168L53.2896 9.14635C53.193 8.82602 53.0025 8.57556 52.7183 8.39498C52.4393 8.20766 52.0825 8.14262 51.648 8.19985C51.273 8.24924 50.9718 8.37672 50.7446 8.58227C50.5225 8.78109 50.3681 9.03457 50.2815 9.34271C50.1942 9.6449 50.1736 9.97159 50.2199 10.3228C50.2653 10.668 50.3702 10.9813 50.5344 11.2624C50.6978 11.5376 50.9163 11.7481 51.1898 11.8937C51.4625 12.0334 51.7894 12.0782 52.1704 12.028C52.462 11.9896 52.7084 11.9057 52.9093 11.7762C53.1155 11.6401 53.2722 11.4741 53.3797 11.2783C53.4931 11.0817 53.5476 10.8746 53.5431 10.6572L54.186 10.5725C54.2093 10.9328 54.1373 11.2602 53.9702 11.5548C53.8083 11.8425 53.5794 12.0816 53.2835 12.272C52.9868 12.4564 52.642 12.5745 52.2492 12.6262Z" fill="white"/>
<path d="M59.3293 12.3164C58.9212 12.3045 58.5632 12.225 58.2551 12.0779C57.9532 11.925 57.6977 11.7283 57.4884 11.488C57.2854 11.2418 57.1311 10.97 57.0256 10.6726C56.9262 10.3754 56.8809 10.0738 56.8898 9.76769L56.8935 9.64166C56.9024 9.33558 56.9681 9.03717 57.0907 8.74642C57.2135 8.44966 57.3863 8.1874 57.6091 7.95963C57.832 7.73187 58.0985 7.55342 58.4086 7.4243C58.7248 7.28934 59.081 7.22763 59.4771 7.23916C59.8792 7.25087 60.2312 7.33319 60.5331 7.48614C60.8412 7.63326 61.0998 7.82699 61.309 8.06734C61.5183 8.30768 61.6725 8.57946 61.7718 8.88268C61.8773 9.18007 61.9256 9.48181 61.9167 9.78788L61.913 9.91391C61.9041 10.22 61.8414 10.5185 61.7248 10.8094C61.6082 11.1003 61.4384 11.3627 61.2153 11.5965C60.9985 11.8244 60.7319 12.0058 60.4156 12.1408C60.0995 12.2697 59.7374 12.3283 59.3293 12.3164ZM59.3469 11.7133C59.743 11.7248 60.0786 11.6475 60.3537 11.4813C60.635 11.3093 60.8519 11.0813 61.0043 10.7975C61.1569 10.5076 61.2384 10.1856 61.2487 9.8315C61.2592 9.47142 61.1936 9.14515 61.0519 8.85272C60.9165 8.55445 60.7131 8.31728 60.442 8.1412C60.1709 7.95912 59.8434 7.86249 59.4593 7.85131C59.0812 7.84031 58.7516 7.91781 58.4705 8.08381C58.1895 8.24382 57.9697 8.46867 57.8111 8.75838C57.6587 9.04226 57.5773 9.36424 57.5668 9.72433C57.5565 10.0784 57.6191 10.4046 57.7545 10.7029C57.8902 10.9951 58.0904 11.2352 58.3552 11.4231C58.6262 11.6052 58.9568 11.7019 59.3469 11.7133Z" fill="white"/>
<path d="M70.7379 14.2052C70.4043 14.1053 70.1176 13.9536 69.8777 13.7501C69.6453 13.5426 69.4611 13.2995 69.3253 13.0206C69.1969 12.7377 69.1203 12.439 69.0954 12.1244C69.078 11.8059 69.1176 11.4855 69.214 11.1634L69.2502 11.0427C69.3432 10.7321 69.4837 10.4514 69.6717 10.2005C69.8613 9.94398 70.0838 9.73484 70.339 9.57313C70.6018 9.40739 70.8873 9.30173 71.1955 9.25616C71.5112 9.20657 71.8387 9.23259 72.178 9.33422C72.5634 9.44964 72.8778 9.63468 73.1211 9.88933C73.3645 10.144 73.528 10.4562 73.6115 10.8259C73.6968 11.1899 73.6771 11.6008 73.5525 12.0586L73.4281 11.4385L74.3764 8.27223L75.0234 8.46603L73.1371 14.764L72.6195 14.6089L73.2267 12.5815L73.4338 12.6435C73.2793 13.1175 73.058 13.4899 72.77 13.7609C72.4895 14.0279 72.1727 14.1962 71.8197 14.266C71.4723 14.3374 71.1118 14.3172 70.7379 14.2052ZM70.9947 13.6616C71.3053 13.7547 71.6049 13.7692 71.8936 13.7052C72.188 13.643 72.445 13.5069 72.6646 13.2969C72.8859 13.0811 73.0465 12.8065 73.1464 12.4729L73.2705 12.0588C73.3669 11.7367 73.3795 11.4333 73.308 11.1487C73.2383 10.8583 73.0976 10.6062 72.8859 10.3923C72.6799 10.1802 72.4187 10.0268 72.1024 9.93205C71.7631 9.83042 71.4419 9.8251 71.1388 9.91609C70.8433 10.0031 70.5843 10.1668 70.3618 10.4073C70.1451 10.6495 69.9843 10.946 69.8792 11.2968C69.7706 11.6592 69.7432 12.002 69.7968 12.3251C69.8504 12.6483 69.9797 12.9283 70.1845 13.1651C70.3911 13.3962 70.6611 13.5617 70.9947 13.6616Z" fill="white"/>
<path d="M77.7899 17C77.4234 16.8203 77.1303 16.5997 76.9108 16.3382C76.6993 16.074 76.5481 15.7892 76.4571 15.4838C76.3742 15.1757 76.3463 14.8644 76.3734 14.55C76.4059 14.2383 76.4895 13.945 76.6244 13.67L76.6799 13.5568C76.8147 13.2819 76.9981 13.0375 77.23 12.8236C77.4646 12.6043 77.7305 12.4371 78.0277 12.322C78.3248 12.2069 78.6413 12.1548 78.977 12.1656C79.3208 12.1737 79.6705 12.265 80.0263 12.4395C80.3875 12.6166 80.6738 12.8372 80.8853 13.1014C81.1048 13.3629 81.2601 13.6463 81.3511 13.9517C81.442 14.2571 81.4699 14.5684 81.4348 14.8855C81.4077 15.1999 81.3267 15.4945 81.1919 15.7694L81.1364 15.8826C81.0016 16.1576 80.8209 16.4033 80.5943 16.6199C80.3678 16.8364 80.1046 17.005 79.8048 17.1254C79.513 17.2431 79.1952 17.298 78.8515 17.2899C78.5104 17.2764 78.1565 17.1798 77.7899 17ZM78.0556 16.4583C78.4114 16.6327 78.7489 16.7013 79.0682 16.6639C79.3954 16.6238 79.6872 16.5061 79.9435 16.3107C80.2024 16.11 80.4098 15.8507 80.5658 15.5326C80.7244 15.2092 80.7998 14.885 80.7919 14.5602C80.792 14.2326 80.7051 13.9325 80.5312 13.66C80.3599 13.3821 80.1017 13.1585 79.7567 12.9893C79.4171 12.8228 79.0849 12.7569 78.7603 12.7916C78.4383 12.8209 78.1452 12.9346 77.8809 13.1327C77.6246 13.328 77.4172 13.5874 77.2586 13.9108C77.1026 14.2289 77.0245 14.5517 77.0244 14.8793C77.0269 15.2015 77.1098 15.5029 77.273 15.7836C77.4444 16.0615 77.7052 16.2864 78.0556 16.4583Z" fill="white"/>
<path d="M86.2378 22.2649L89.2657 18.5867L89.7802 19.0102L86.7523 22.6884L86.2378 22.2649ZM88.3312 18.5173L88.6747 18.1001L89.7802 19.0102L89.4368 19.4274L88.3312 18.5173ZM89.9379 17.9968C89.8127 17.8938 89.7444 17.7831 89.7329 17.6648C89.7299 17.5457 89.7704 17.4351 89.8543 17.3331C89.9383 17.2312 90.0371 17.1725 90.1508 17.1572C90.2729 17.1411 90.3966 17.1846 90.5217 17.2876C90.6469 17.3907 90.711 17.5017 90.714 17.6209C90.7208 17.7354 90.6823 17.8436 90.5983 17.9456C90.5144 18.0476 90.4136 18.1085 90.2961 18.1285C90.1825 18.1437 90.063 18.0999 89.9379 17.9968Z" fill="white"/>
<path d="M89.6229 25.1773L93.205 22.0228L93.5621 22.4283L92.0549 23.7556L91.9835 23.6745C92.3124 23.3848 92.636 23.1799 92.9542 23.0597C93.2763 22.944 93.584 22.921 93.8774 22.9907C94.1753 23.0564 94.4492 23.2312 94.6992 23.515L94.717 23.5353C94.967 23.8192 95.108 24.111 95.14 24.4108C95.1721 24.7107 95.1083 25.0108 94.9489 25.3112C94.7894 25.6116 94.543 25.9086 94.2096 26.2023L94.0667 26.0401C94.3956 25.7504 94.7192 25.5455 95.0374 25.4253C95.3595 25.3096 95.6673 25.2866 95.9606 25.3563C96.2624 25.4265 96.5384 25.6035 96.7883 25.8874L96.8062 25.9077C97.0562 26.1915 97.1972 26.4834 97.2292 26.7832C97.2652 27.0875 97.2035 27.3899 97.044 27.6903C96.8885 27.9952 96.6441 28.2945 96.3106 28.5881L94.2357 30.4154L93.7893 29.9085L95.9791 27.98C96.2945 27.7023 96.4772 27.4055 96.527 27.0896C96.5768 26.7737 96.4748 26.4716 96.2208 26.1832C95.9589 25.8858 95.6537 25.7345 95.3052 25.7294C94.9652 25.7249 94.6329 25.8654 94.3085 26.1511L92.1525 28.0498L91.7061 27.5429L93.8959 25.6145C94.2113 25.3367 94.3939 25.0399 94.4438 24.724C94.4936 24.4081 94.3915 24.106 94.1376 23.8176C93.8757 23.5202 93.5705 23.369 93.222 23.3639C92.882 23.3593 92.5497 23.4999 92.2253 23.7856L90.0693 25.6842L89.6229 25.1773Z" fill="white"/>
<path d="M95.8001 33.0055L99.8317 30.4669L100.187 31.0309L96.1552 33.5694L95.8001 33.0055ZM98.9665 30.1071L99.4238 29.8191L100.187 31.0309L99.7295 31.3188L98.9665 30.1071ZM100.655 30.1186C100.569 29.9814 100.539 29.8549 100.565 29.7389C100.6 29.6249 100.673 29.5327 100.785 29.4623C100.897 29.3919 101.009 29.3674 101.122 29.3886C101.243 29.4118 101.346 29.4919 101.433 29.6291C101.519 29.7663 101.545 29.8919 101.51 30.0059C101.481 30.1168 101.41 30.2074 101.298 30.2778C101.187 30.3482 101.072 30.3743 100.954 30.3563C100.841 30.335 100.742 30.2558 100.655 30.1186Z" fill="white"/>
<path d="M97.1163 39.3297C97.0245 39.1275 96.9423 38.9175 96.8699 38.6998C96.7945 38.4901 96.7282 38.2861 96.6712 38.0878L97.196 37.8495C97.258 38.0587 97.3292 38.2737 97.4096 38.4943C97.487 38.723 97.5692 38.9329 97.656 39.1243C97.8447 39.5398 98.0495 39.8457 98.2705 40.0421C98.4915 40.2385 98.7459 40.334 99.0336 40.3287C99.3183 40.3313 99.6548 40.2445 100.043 40.0683L100.912 39.6737L101.623 39.6278C101.203 39.8055 100.805 39.8806 100.43 39.8531C100.06 39.8231 99.7328 39.7046 99.4477 39.4978C99.1625 39.291 98.9393 39.0099 98.778 38.6545C98.6365 38.3429 98.5676 38.0313 98.5712 37.7197C98.5773 37.4137 98.6433 37.1233 98.7692 36.8485C98.9005 36.5713 99.0777 36.3227 99.301 36.1027C99.5242 35.8827 99.7834 35.7057 100.079 35.5716L100.193 35.5195C100.483 35.388 100.782 35.3119 101.089 35.2911C101.401 35.2679 101.7 35.3006 101.984 35.3892C102.273 35.4753 102.534 35.6208 102.765 35.8256C103.005 36.0334 103.197 36.2959 103.34 36.613C103.514 36.9956 103.581 37.3676 103.54 37.7288C103.5 38.09 103.365 38.4182 103.137 38.7132C102.911 39.0137 102.598 39.2613 102.198 39.4559L102.215 39.2107L103.978 38.4103L104.198 38.8941L100.336 40.6475C99.8162 40.8833 99.3632 40.9966 98.9766 40.9875C98.5901 40.9784 98.246 40.8378 97.9445 40.5659C97.6455 40.2994 97.3695 39.8874 97.1163 39.3297ZM99.3922 38.5042C99.5263 38.7995 99.7083 39.0333 99.9382 39.2059C100.176 39.3814 100.444 39.4841 100.741 39.5141C101.038 39.544 101.342 39.4883 101.654 39.3468L102.056 39.1644C102.356 39.0279 102.587 38.8377 102.746 38.5938C102.908 38.3554 103 38.0928 103.022 37.8061C103.043 37.5194 102.987 37.2284 102.853 36.9332C102.709 36.6161 102.507 36.3748 102.247 36.2092C101.987 36.0436 101.698 35.9575 101.378 35.9509C101.064 35.9418 100.743 36.0117 100.415 36.1606C100.082 36.312 99.8123 36.5101 99.607 36.755C99.4041 37.0054 99.2823 37.2816 99.2414 37.5837C99.2005 37.8858 99.2508 38.1926 99.3922 38.5042Z" fill="white"/>
<path d="M100.839 43.8397L105.417 42.5202L105.567 43.0394L103.654 43.5907L103.639 43.5387C104.309 43.3458 104.844 43.3508 105.246 43.5535C105.654 43.7546 105.949 44.1696 106.13 44.7984L106.172 44.9455L105.584 45.1152L105.507 44.8469C105.364 44.3508 105.125 44.0103 104.79 43.8255C104.462 43.6391 104.049 43.6174 103.553 43.7604L101.026 44.4887L100.839 43.8397Z" fill="white"/>
<path d="M102.611 52.2142L104.028 52.0075L104.012 51.9006L105.688 51.6562C106.038 51.6051 106.292 51.474 106.449 51.263C106.613 51.0511 106.666 50.752 106.61 50.3659C106.584 50.1876 106.554 50.0069 106.522 49.8235C106.49 49.6462 106.456 49.4752 106.42 49.3106C106.39 49.151 106.36 49.0097 106.33 48.8867L106.919 48.8009C106.95 48.9299 106.981 49.0618 107.013 49.1967C107.045 49.3316 107.071 49.4704 107.092 49.613C107.119 49.7606 107.143 49.9028 107.163 50.0394C107.233 50.5207 107.23 50.9155 107.154 51.224C107.078 51.5384 106.923 51.7825 106.687 51.9564C106.458 52.1295 106.135 52.2463 105.719 52.307L102.689 52.7489L102.611 52.2142ZM102.254 50.6372C102.205 50.3045 102.222 50.0018 102.303 49.729C102.385 49.4562 102.528 49.232 102.733 49.0565C102.939 48.8869 103.202 48.7787 103.523 48.7319C103.838 48.686 104.115 48.7183 104.356 48.8288C104.598 48.9453 104.795 49.1319 104.947 49.3888C105.107 49.6507 105.215 49.9777 105.273 50.3698L105.474 51.7511L104.966 51.8252L104.758 50.3993C104.703 50.025 104.569 49.7503 104.356 49.5752C104.149 49.4051 103.9 49.3413 103.609 49.3838C103.312 49.4271 103.089 49.5657 102.941 49.7997C102.799 50.0328 102.754 50.3275 102.806 50.684C102.838 50.9038 102.908 51.1091 103.015 51.2998C103.127 51.4897 103.289 51.6391 103.499 51.748C103.715 51.856 103.993 51.8913 104.333 51.8538L104.085 52.0902C103.731 52.1175 103.425 52.0772 103.167 51.9693C102.914 51.8605 102.711 51.693 102.557 51.4667C102.402 51.2405 102.301 50.964 102.254 50.6372Z" fill="white"/>
<path d="M102.885 55.8526L107.649 55.9019L107.644 56.4423L105.644 56.4216L105.645 56.3135C106.09 56.3181 106.47 56.3881 106.787 56.5235C107.104 56.6588 107.348 56.8595 107.519 57.1255C107.691 57.3915 107.774 57.7256 107.77 58.1278L107.77 58.1548C107.764 58.7552 107.57 59.2005 107.189 59.4908C106.813 59.7811 106.287 59.9227 105.608 59.9157L102.843 59.887L102.85 59.2206L105.759 59.2508C106.173 59.2551 106.508 59.1445 106.762 58.9189C107.017 58.6934 107.146 58.3765 107.15 57.9683C107.155 57.548 107.026 57.2074 106.765 56.9465C106.509 56.6917 106.168 56.5621 105.742 56.5577L102.878 56.528L102.885 55.8526Z" fill="white"/>
<path d="M102.147 65.0132C102.199 64.687 102.29 64.4127 102.423 64.1904C102.555 63.9681 102.744 63.8094 102.99 63.7143C103.242 63.6202 103.56 63.6034 103.946 63.664L108.643 64.4022L108.543 65.0428L103.747 64.2892C103.474 64.2463 103.252 64.2873 103.081 64.4123C102.915 64.5382 102.811 64.7376 102.768 65.0104L102.635 65.8556L102.03 65.7606L102.147 65.0132ZM106.783 63.2438L107.29 63.3235L106.79 66.5086L106.283 66.4289L106.783 63.2438Z" fill="white"/>
<path d="M100.65 70.726C100.769 70.3355 100.939 70.0169 101.159 69.7702C101.384 69.5252 101.637 69.345 101.917 69.2297C102.203 69.1161 102.501 69.0564 102.81 69.0505C103.118 69.0503 103.421 69.0958 103.719 69.1871L103.84 69.2239C104.133 69.3134 104.407 69.4442 104.662 69.6163C104.915 69.7941 105.126 70.0091 105.293 70.2613C105.461 70.5134 105.569 70.7975 105.617 71.1135C105.669 71.4369 105.638 71.7853 105.524 72.1585C105.378 72.6351 105.151 72.9988 104.842 73.2497C104.531 73.5064 104.185 73.6642 103.802 73.7232C103.426 73.784 103.048 73.7565 102.669 73.6407L102.333 73.538L103.578 69.4641L104.078 69.6168L102.97 73.2428L102.77 73.0028C103.109 73.1064 103.423 73.1364 103.712 73.093C104.006 73.0571 104.26 72.9463 104.473 72.7605C104.691 72.5821 104.852 72.3236 104.955 71.9848C105.064 71.6288 105.071 71.3077 104.976 71.0214C104.882 70.7351 104.715 70.4895 104.476 70.2847C104.236 70.0857 103.94 69.9326 103.59 69.8256C103.246 69.7204 102.912 69.6813 102.59 69.7084C102.272 69.743 101.993 69.8555 101.753 70.0458C101.511 70.2418 101.333 70.5264 101.219 70.8996C101.097 71.2958 101.088 71.6446 101.191 71.9459C101.299 72.2489 101.468 72.4669 101.697 72.5997L101.513 73.2026C101.226 73.0522 100.999 72.851 100.831 72.5988C100.669 72.3484 100.571 72.0641 100.536 71.7459C100.502 71.4277 100.54 71.0877 100.65 70.726Z" fill="white"/>
<circle cx="12.3186" cy="76.9911" r="1.02655" fill="#D9D9D9"/>
<circle cx="102.142" cy="76.9911" r="1.02655" fill="#D9D9D9"/>
<path d="M15.5073 89.1494L20.5945 84.985L21.0281 85.5146L15.9408 89.679L15.5073 89.1494ZM15.8381 89.5536L16.319 89.16L18.4012 91.7036L17.9203 92.0972L15.8381 89.5536ZM18.1866 87.6311L18.6605 87.2432L20.5488 89.5499L20.0749 89.9378L18.1866 87.6311ZM20.4445 85.7828L20.9254 85.3892L22.9448 87.8562L22.464 88.2498L20.4445 85.7828Z" fill="white"/>
<path d="M21.3997 95.8716C20.9898 95.475 20.8043 95.0407 20.8433 94.5687C20.8864 94.0924 21.1376 93.617 21.5969 93.1424L23.5509 91.1232L24.0298 91.5866L21.9819 93.7029C21.6938 94.0006 21.5418 94.3131 21.526 94.6403C21.5186 94.9674 21.6551 95.2666 21.9356 95.538C22.229 95.8219 22.5517 95.9546 22.9038 95.9361C23.2603 95.9217 23.5888 95.7593 23.8894 95.4486L25.8873 93.3841L26.3726 93.8538L23.0533 97.2839L22.665 96.9081L24.0491 95.4778L24.1268 95.553C23.8178 95.8723 23.5074 96.1024 23.1955 96.2434C22.8878 96.3801 22.5828 96.4233 22.2805 96.373C21.9823 96.3185 21.6952 96.1576 21.4191 95.8904L21.3997 95.8716Z" fill="white"/>
<path d="M32.4256 102.879C31.8717 102.618 31.5018 102.297 31.3158 101.917C31.1324 101.532 31.134 101.134 31.3207 100.725L31.8909 100.994C31.8044 101.205 31.8084 101.436 31.9027 101.686C32.0025 101.939 32.2588 102.163 32.6715 102.357C33.057 102.539 33.382 102.596 33.6463 102.529C33.9187 102.458 34.1086 102.308 34.2162 102.08C34.3161 101.869 34.3114 101.667 34.2023 101.476C34.1012 101.283 33.9063 101.098 33.6175 100.922L33.1519 100.642C32.7814 100.414 32.52 100.145 32.3679 99.8344C32.2237 99.5208 32.2336 99.1903 32.3975 98.8427C32.5179 98.5875 32.6881 98.3956 32.908 98.267C33.128 98.1384 33.3791 98.0776 33.6613 98.0845C33.9514 98.0886 34.2567 98.1662 34.5771 98.3174C35.0386 98.5351 35.3621 98.8204 35.5475 99.1734C35.7383 99.5289 35.7416 99.9088 35.5575 100.313L34.9873 100.044C35.0792 99.8354 35.0743 99.6206 34.9725 99.4001C34.8708 99.1795 34.657 98.9923 34.3312 98.8387C33.9945 98.6799 33.7074 98.6341 33.4699 98.7013C33.2379 98.7711 33.0719 98.9119 32.972 99.1236C32.8875 99.3028 32.8795 99.4816 32.948 99.66C33.0192 99.8329 33.1814 99.9957 33.4346 100.148L33.9003 100.428C34.3117 100.682 34.6057 100.973 34.7825 101.302C34.9647 101.633 34.9674 101.987 34.7907 102.361C34.6703 102.616 34.4881 102.813 34.2442 102.95C34.0082 103.084 33.733 103.147 33.4186 103.138C33.1041 103.129 32.7731 103.043 32.4256 102.879Z" fill="white"/>
<path d="M39.5088 105.723C39.1219 105.593 38.8025 105.412 38.5507 105.182C38.3065 104.948 38.1194 104.685 37.9893 104.394C37.8668 104.099 37.7985 103.795 37.7843 103.479C37.7758 103.166 37.8204 102.864 37.9181 102.574L37.9584 102.455C38.0561 102.164 38.206 101.898 38.408 101.656C38.6119 101.408 38.8537 101.207 39.1333 101.054C39.4129 100.901 39.7198 100.808 40.054 100.775C40.3959 100.738 40.7546 100.783 41.1302 100.91C41.5114 101.038 41.8241 101.219 42.0683 101.454C42.3201 101.684 42.511 101.945 42.6411 102.236C42.7712 102.527 42.8395 102.832 42.8461 103.151C42.8603 103.466 42.8186 103.769 42.7208 104.059L42.6806 104.178C42.5828 104.468 42.4358 104.736 42.2395 104.98C42.0431 105.224 41.8042 105.426 41.5227 105.584C41.2488 105.739 40.941 105.835 40.5991 105.872C40.2591 105.903 39.8957 105.854 39.5088 105.723ZM39.7014 105.151C40.0769 105.278 40.4205 105.302 40.7321 105.223C41.0514 105.14 41.3253 104.986 41.5538 104.758C41.7843 104.526 41.956 104.241 42.0691 103.906C42.1841 103.564 42.2165 103.233 42.1662 102.912C42.1236 102.587 41.9982 102.301 41.7901 102.054C41.584 101.8 41.2988 101.613 40.9347 101.49C40.5762 101.369 40.2383 101.347 39.921 101.424C39.6056 101.495 39.3298 101.646 39.0937 101.877C38.8651 102.104 38.6934 102.389 38.5784 102.73C38.4653 103.066 38.4301 103.396 38.4727 103.721C38.5173 104.04 38.6388 104.328 38.8374 104.585C39.0436 104.838 39.3316 105.027 39.7014 105.151Z" fill="white"/>
<path d="M46.6842 107.631C46.1259 107.515 45.7371 107.247 45.5179 106.827C45.3 106.401 45.2583 105.865 45.3931 105.219L45.9663 102.468L46.6187 102.604L46.0179 105.487C45.9334 105.893 45.9719 106.238 46.1332 106.523C46.3017 106.803 46.577 106.983 46.9591 107.063C47.3587 107.146 47.7025 107.086 47.9903 106.882C48.2839 106.68 48.4748 106.367 48.563 105.944L49.1491 103.131L49.8103 103.269L48.8366 107.942L48.3076 107.832L48.7136 105.883L48.8194 105.905C48.7288 106.34 48.5893 106.7 48.401 106.986C48.2138 107.266 47.9791 107.466 47.6967 107.585C47.4155 107.698 47.0869 107.715 46.7107 107.637L46.6842 107.631Z" fill="white"/>
<path d="M57.9735 109.088L57.5033 104.338L58.041 104.285L58.2388 106.283L58.1313 106.294C58.0881 105.858 58.1106 105.476 58.1987 105.147C58.2929 104.818 58.4538 104.555 58.6817 104.357C58.9089 104.154 59.2107 104.033 59.5871 103.996L59.614 103.993C59.9904 103.956 60.3097 104.012 60.5718 104.161C60.8339 104.31 61.0404 104.537 61.1912 104.842C61.3421 105.147 61.4394 105.52 61.4831 105.962L61.2681 105.983C61.2249 105.547 61.2474 105.165 61.3355 104.837C61.4296 104.507 61.5906 104.244 61.8184 104.047C62.0516 103.843 62.3564 103.722 62.7328 103.685L62.7597 103.682C63.1361 103.645 63.4554 103.701 63.7175 103.85C63.9856 103.998 64.1951 104.225 64.3459 104.529C64.5027 104.834 64.603 105.207 64.6468 105.649L64.9192 108.4L64.247 108.467L63.9596 105.563C63.9182 105.145 63.7838 104.823 63.5564 104.599C63.329 104.374 63.0241 104.28 62.6417 104.318C62.2474 104.357 61.9464 104.517 61.7388 104.797C61.5366 105.07 61.4568 105.422 61.4994 105.852L61.7824 108.711L61.1102 108.777L60.8228 105.874C60.7814 105.455 60.647 105.134 60.4196 104.909C60.1922 104.684 59.8873 104.591 59.5049 104.629C59.1106 104.668 58.8096 104.827 58.602 105.107C58.3998 105.381 58.32 105.732 58.3626 106.162L58.6456 109.021L57.9735 109.088Z" fill="white"/>
<path d="M70.1771 107.347C69.7805 107.444 69.4142 107.462 69.0781 107.402C68.7464 107.335 68.4478 107.213 68.1822 107.037C67.9211 106.854 67.7001 106.633 67.5194 106.374C67.3446 106.114 67.2208 105.835 67.148 105.538L67.1181 105.415C67.0453 105.118 67.0294 104.813 67.0704 104.5C67.1099 104.181 67.2068 103.882 67.3611 103.604C67.5155 103.325 67.7249 103.082 67.9896 102.875C68.2586 102.661 68.5856 102.507 68.9705 102.413C69.3613 102.317 69.7225 102.303 70.0542 102.37C70.3902 102.43 70.6911 102.548 70.9566 102.724C71.2222 102.9 71.4432 103.121 71.6194 103.387C71.8001 103.646 71.9269 103.924 71.9996 104.222L72.0295 104.344C72.1023 104.641 72.1211 104.946 72.086 105.257C72.0509 105.569 71.9569 105.867 71.804 106.151C71.6555 106.429 71.4467 106.675 71.1777 106.889C70.9072 107.097 70.5737 107.25 70.1771 107.347ZM70.0338 106.761C70.4187 106.666 70.7217 106.503 70.9428 106.269C71.1683 106.029 71.3168 105.751 71.3883 105.437C71.4584 105.117 71.4513 104.785 71.3672 104.441C71.2816 104.091 71.1317 103.794 70.9174 103.55C70.7076 103.298 70.4486 103.124 70.1403 103.026C69.8307 102.922 69.4893 102.916 69.116 103.008C68.7486 103.097 68.4514 103.26 68.2245 103.494C67.9961 103.723 67.844 103.998 67.7681 104.32C67.6966 104.634 67.7036 104.966 67.7892 105.316C67.8733 105.66 68.0203 105.958 68.2302 106.21C68.4386 106.455 68.6954 106.634 69.0007 106.744C69.3103 106.848 69.6547 106.853 70.0338 106.761Z" fill="white"/>
<path d="M76.6566 105.199L73.4273 101.316L74.0774 101.075L77.2897 104.964L76.6566 105.199ZM76.8254 105.136L76.6341 104.621L77.4361 104.323L77.6274 104.838L76.8254 105.136ZM77.1715 105.008L76.8718 100.037L77.4965 99.8045L77.771 104.785L77.1715 105.008Z" fill="white"/>
<path d="M83.9687 102.168C83.6043 102.352 83.257 102.45 82.9268 102.462C82.5938 102.469 82.2888 102.411 82.0118 102.289C81.732 102.161 81.4829 101.987 81.2644 101.768C81.0514 101.546 80.8744 101.296 80.7336 101.017L80.6768 100.905C80.5387 100.631 80.4435 100.343 80.3912 100.04C80.3442 99.734 80.3537 99.4333 80.4196 99.1376C80.4855 98.842 80.6159 98.5675 80.8108 98.3143C81.0084 98.053 81.2814 97.8344 81.6297 97.6584C82.0745 97.4336 82.4943 97.3459 82.8892 97.3953C83.2895 97.4419 83.6432 97.5827 83.9503 97.8177C84.2547 98.0474 84.4962 98.339 84.6749 98.6927L84.8333 99.0062L81.0313 100.927L80.7957 100.461L84.1798 98.7512L84.1448 99.0614C83.9851 98.7453 83.7894 98.4977 83.5577 98.3188C83.3287 98.1318 83.0731 98.0255 82.7911 97.9998C82.5117 97.9661 82.2139 98.0291 81.8978 98.1889C81.5655 98.3568 81.3288 98.5739 81.1876 98.8404C81.0464 99.1068 80.9846 99.397 81.002 99.7111C81.0248 100.022 81.1188 100.342 81.284 100.668C81.4464 100.99 81.6489 101.258 81.8915 101.471C82.1367 101.677 82.4111 101.801 82.7147 101.843C83.0237 101.882 83.3523 101.813 83.7006 101.637C84.0704 101.45 84.3285 101.215 84.475 100.933C84.6187 100.645 84.6592 100.372 84.5964 100.115L85.159 99.8305C85.249 100.142 85.261 100.445 85.1951 100.741C85.1265 101.031 84.9894 101.299 84.7837 101.544C84.5779 101.789 84.3063 101.997 83.9687 102.168Z" fill="white"/>
<path d="M89.118 100.811L85.771 95.1631L86.2359 94.8876L87.2781 96.6464L87.1478 96.7445C86.9236 96.319 86.8048 95.9183 86.7914 95.5424C86.7832 95.1635 86.8705 94.8221 87.0534 94.5183C87.2384 94.2063 87.4988 93.9508 87.8345 93.7518C88.1341 93.5743 88.4405 93.473 88.7536 93.448C89.0689 93.4147 89.3714 93.4482 89.6613 93.5487C89.9532 93.6409 90.2196 93.7901 90.4604 93.9963C90.7034 94.1943 90.9075 94.4328 91.0728 94.7117L91.1371 94.8202C91.3024 95.0991 91.415 95.3952 91.4751 95.7086C91.5321 96.0168 91.5325 96.3236 91.4762 96.6291C91.4221 96.9264 91.3063 97.2079 91.1287 97.4737C90.9533 97.7312 90.7132 97.9502 90.4085 98.1308C90.0831 98.3236 89.7406 98.4288 89.3812 98.4464C89.0238 98.4558 88.6742 98.3664 88.3324 98.1781C87.9957 97.9868 87.6941 97.684 87.4276 97.2696L88.0509 97.6854L89.6991 100.467L89.118 100.811ZM90.028 97.6653C90.3379 97.4817 90.561 97.2517 90.6974 96.9755C90.8308 96.6941 90.8819 96.3916 90.8507 96.0682C90.8164 95.7395 90.7075 95.4202 90.5238 95.1103C90.3341 94.79 90.1037 94.5427 89.8329 94.3682C89.5641 94.1855 89.2758 94.0877 88.968 94.0747C88.6571 94.0565 88.3493 94.1377 88.0446 94.3183C87.7656 94.4836 87.5493 94.6955 87.3955 94.9542C87.2416 95.2128 87.1649 95.4956 87.1653 95.8024C87.1678 96.101 87.2593 96.4027 87.4399 96.7075L87.6649 97.0871C87.8363 97.3764 88.0524 97.5938 88.3131 97.7394C88.576 97.8767 88.8578 97.94 89.1585 97.9293C89.4592 97.9186 89.7491 97.8306 90.028 97.6653Z" fill="white"/>
<path d="M97.1503 93.2527L96.2828 92.1134L96.1969 92.1789L95.1711 90.8318C94.9565 90.55 94.7188 90.3914 94.458 90.3561C94.1935 90.316 93.906 90.4141 93.5955 90.6505C93.4522 90.7597 93.3084 90.873 93.1639 90.9905C93.0242 91.1044 92.8912 91.2171 92.7647 91.3285C92.6393 91.4314 92.5302 91.5259 92.4371 91.6118L92.077 91.1389C92.1748 91.0494 92.2751 90.958 92.3776 90.8647C92.4802 90.7715 92.5889 90.6813 92.7035 90.594C92.8193 90.4983 92.9321 90.4086 93.042 90.3249C93.4289 90.0303 93.7758 89.8417 94.0826 89.759C94.3942 89.6726 94.6831 89.6904 94.9494 89.8121C95.212 89.9291 95.4706 90.1548 95.7252 90.4891L97.5802 92.9253L97.1503 93.2527ZM95.9441 94.3296C95.6766 94.5333 95.4038 94.6656 95.1256 94.7264C94.8475 94.7873 94.582 94.7706 94.3291 94.6764C94.081 94.5785 93.8588 94.4006 93.6624 94.1427C93.4696 93.8895 93.3633 93.6309 93.3433 93.3669C93.3282 93.0992 93.3959 92.8363 93.5465 92.5782C93.6983 92.3117 93.9318 92.0585 94.2471 91.8184L95.3577 90.9727L95.6687 91.3812L94.5222 92.2541C94.2213 92.4833 94.046 92.7337 93.9963 93.0055C93.9478 93.2688 94.0127 93.5175 94.1909 93.7516C94.3728 93.9904 94.6019 94.1178 94.8782 94.1338C95.1508 94.145 95.4305 94.0415 95.7171 93.8233C95.8938 93.6887 96.0398 93.5285 96.1549 93.3428C96.2664 93.1522 96.3189 92.9387 96.3123 92.7022C96.3022 92.4609 96.1982 92.2005 96.0004 91.9209L96.3272 92.023C96.5227 92.3194 96.6359 92.6068 96.6667 92.8851C96.6939 93.1587 96.646 93.4179 96.5229 93.6625C96.3998 93.9072 96.2069 94.1296 95.9441 94.3296Z" fill="white"/>
<path d="M101.22 92.2418L100.804 91.8042L101.249 91.3825C101.401 91.2379 101.513 91.0943 101.585 90.9517C101.66 90.8136 101.692 90.6636 101.679 90.5019C101.666 90.3402 101.61 90.154 101.509 89.9433L99.125 85.1034L99.6018 84.6508L102.064 89.6774C102.205 89.9656 102.279 90.2351 102.285 90.4858C102.295 90.7409 102.244 90.9795 102.132 91.2017C102.02 91.4239 101.856 91.6383 101.638 91.845L101.22 92.2418ZM100.985 89.7449L100.595 89.3334L101.215 88.7444L101.606 89.1559L100.985 89.7449ZM100.927 89.8007L96.4731 87.6208L96.976 87.1433L101.384 89.3667L100.927 89.8007Z" fill="white"/>
<path d="M69.4595 48.7061C69.0532 48.5368 68.6056 48.4923 68.1739 48.5783C67.7421 48.6642 67.3457 48.8768 67.0352 49.1888L64.1593 52.0646L59.0592 46.9646C58.6421 46.5476 58.0765 46.3134 57.4867 46.3134C56.897 46.3134 56.3313 46.5476 55.9142 46.9646L50.8142 52.0646L47.9383 49.1888C47.6272 48.8778 47.231 48.666 46.7996 48.5803C46.3682 48.4945 45.9211 48.5385 45.5147 48.7068C45.1083 48.8751 44.761 49.1601 44.5166 49.5258C44.2722 49.8915 44.1417 50.3214 44.1416 50.7613V62.5339C44.1434 64.0081 44.7298 65.4214 45.7722 66.4638C46.8146 67.5062 48.2279 68.0926 49.7021 68.0944H65.2714C66.7456 68.0926 68.1589 67.5062 69.2013 66.4638C70.2437 65.4214 70.8301 64.0081 70.8319 62.5339V50.7613C70.832 50.3214 70.7017 49.8914 70.4574 49.5256C70.2131 49.1597 69.8659 48.8746 69.4595 48.7061Z" fill="#CFFA78"/>
<defs>
<filter id="filter0_b_0_7" x="-23.0973" y="-23.0973" width="162.195" height="162.195" filterUnits="userSpaceOnUse" color-interpolation-filters="sRGB">
<feFlood flood-opacity="0" result="BackgroundImageFix"/>
<feGaussianBlur in="BackgroundImage" stdDeviation="11.5487"/>
<feComposite in2="SourceAlpha" operator="in" result="effect1_backgroundBlur_0_7"/>
<feBlend mode="normal" in="SourceGraphic" in2="effect1_backgroundBlur_0_7" result="shape"/>
</filter>
</defs>
</svg>
